<?xml version="1.0" encoding="utf-8"?>
<!-- Generator: Adobe Illustrator 16.0.3, SVG Export Plug-In . SVG Version: 6.00 Build 0)  -->
<!DOCTYPE svg PUBLIC "-//W3C//DTD SVG 1.1//EN" "http://www.w3.org/Graphics/SVG/1.1/DTD/svg11.dtd">
<svg version="1.1" id="Layer_1" xmlns="http://www.w3.org/2000/svg" xmlns:xlink="http://www.w3.org/1999/xlink" x="0px" y="0px"
	 width="3000px" height="751px" viewBox="0 260.5 3000 751" enable-background="new 0 260.5 3000 751" xml:space="preserve">
<title>Artboard 1</title>
<path fill="#FFFFFF" d="M734.211,749.935c-31.119-32.105-46.678-74.343-46.678-126.711s16.283-94.704,48.849-127.007
	c32.361-32.213,76.527-49.729,122.171-48.453c45.726-1.305,89.976,16.253,122.368,48.552
	c32.565,32.369,48.849,74.605,48.849,126.711c1.873,47.518-16.615,93.577-50.822,126.612
	c-33.434,32.022-78.258,49.392-124.539,48.256C809.373,799.563,765.726,782.147,734.211,749.935z M854.408,751.81
	c31.032,0.282,60.834-12.123,82.5-34.343c23.289-22.895,34.934-54.506,34.934-94.835s-11.118-71.843-33.355-94.54
	c-21.164-22.189-50.655-34.501-81.315-33.947c-30.314-0.7-59.467,11.665-80.032,33.947c-21.447,22.697-32.172,54.31-32.172,94.836
	s10.297,72.138,30.889,94.836C795.726,740.157,824.48,752.62,854.408,751.81z"/>
<path fill="#FFFFFF" d="M1156.678,453.289v54.968c23.092-40.395,59.967-60.593,110.625-60.593
	c35.115-0.92,69.072,12.599,93.947,37.401c25.132,24.935,37.697,60.461,37.697,106.579v200.921h-55.658V601.02
	c0-34.21-8.223-60.164-24.67-77.861c-17.883-18.264-42.768-27.937-68.29-26.546c-25.773-1.505-50.945,8.169-69.079,26.546
	c-16.711,17.697-25.065,43.651-25.065,77.861v191.546h-56.25V453.289H1156.678z"/>
<path fill="#FFFFFF" d="M1630.658,797.895c-44.538,1.586-87.631-15.938-118.422-48.157c-30.46-32.105-45.69-74.54-45.69-127.303
	c0-52.764,15.461-95.099,46.382-127.007c31.532-32.178,75.178-49.557,120.197-47.862c49.211,0,88.684,15.132,118.421,45.396
	c30.104,30.996,46.188,72.975,44.507,116.15c0.057,11.166-0.769,22.319-2.467,33.355h-269.902
	c-0.013,29.756,11.356,58.391,31.777,80.033c19.873,19.812,47.052,30.526,75.098,29.605c20.572,0.679,40.89-4.709,58.422-15.494
	c15.446-9.8,27.611-23.992,34.934-40.756h60.592c-10.63,29.521-29.926,55.146-55.361,73.52
	C1700.296,789.351,1665.717,799.364,1630.658,797.895z M1706.645,523.158c-42.191-38.906-107.106-39.163-149.605-0.593
	c-20.661,21.128-32.394,49.399-32.763,78.947h213.257c0.898-29.164-10.277-57.406-30.889-78.059V523.158z"/>
<path fill="#FFFFFF" d="M1922.369,453.289v57.435c20.197-42.039,54.604-63.06,103.223-63.06v58.718h-14.803
	c-28.815,0-50.756,7.532-65.822,22.599c-15.065,15.065-22.598,41.118-22.598,78.158v185.427h-56.25V453.289H1922.369z"/>
<path fill="#FFFFFF" d="M2332.697,453.289h56.25v339.276h-56.25v-53.881c-22.697,39.474-59.572,59.21-110.625,59.21
	c-35.115,0.921-69.072-12.598-93.947-37.401c-25.132-24.934-37.697-60.263-37.697-105.986V453.289h55.658v192.237
	c0,33.815,8.354,59.671,25.065,77.565c38.468,35.851,98.11,35.851,136.579,0c16.71-17.895,25.065-43.75,25.065-77.565
	L2332.697,453.289z"/>
<path fill="#FFFFFF" d="M2510.033,398.914c21.256-0.083,38.419-17.382,38.336-38.637c-0.04-10.07-4.024-19.724-11.1-26.889
	c-14.793-14.881-38.85-14.951-53.73-0.157c-7.283,7.242-11.324,17.124-11.203,27.394c-0.201,10.142,3.715,19.933,10.855,27.139
	C2490.168,395.096,2499.914,399.145,2510.033,398.914z"/>
<path fill="#FFFFFF" d="M2481.217,865.493c1.027,11.539-2.517,23.021-9.868,31.974c-9.246,7.453-21.04,10.994-32.862,9.869h-23.98
	v46.085h35.133c58.52,0,87.335-29.605,87.335-87.632V453.19h-56.151L2481.217,865.493z"/>
<path fill="#FFFFFF" d="M590.329,398.914c21.255-0.083,38.419-17.382,38.336-38.637c-0.04-10.07-4.024-19.724-11.099-26.889
	c-14.795-14.881-38.851-14.951-53.731-0.157c-7.283,7.242-11.325,17.124-11.203,27.394c-0.201,10.142,3.715,19.933,10.855,27.139
	C570.464,395.096,580.21,399.145,590.329,398.914z"/>
<path fill="#FFFFFF" d="M582.237,485.164c-25.239-24.986-59.634-38.509-95.132-37.4c-25.55-0.352-50.684,6.487-72.533,19.736
	c-21.338,13.138-38.701,31.831-50.23,54.079c-9.753-22.746-26.387-41.865-47.566-54.671c-21.162-12.677-45.398-19.3-70.065-19.145
	c-50.658,0-87.533,20.197-110.625,60.592V453.19H78.947v339.375h56.744V601.02c0-34.21,8.355-60.164,25.066-77.861
	c18.133-18.377,43.305-28.051,69.079-26.546c25.488-1.361,50.331,8.31,68.19,26.546c16.447,17.697,24.671,43.651,24.671,77.861
	v191.447h55.658V601.02c0-34.21,8.355-60.164,25.065-77.861c17.927-18.198,42.779-27.859,68.29-26.546
	c25.488-1.361,50.331,8.31,68.19,26.546c16.678,17.763,24.868,43.717,24.868,77.861v191.546v72.928
	c1.165,11.473-2.199,22.946-9.375,31.974c-9.235,7.472-21.037,11.016-32.861,9.869h-25.066v46.085h35.428
	c58.52,0,87.04-29.605,87.04-87.632V591.743C619.935,545.658,607.5,510.132,582.237,485.164z"/>
<path fill="#FFFFFF" d="M2654.605,749.935c-31.119-32.105-46.678-74.343-46.678-126.711s16.283-94.704,48.849-127.007
	c68.743-64.717,175.993-64.717,244.737,0c32.763,32.369,49.145,74.639,49.145,126.81c1.85,47.581-16.715,93.688-51.02,126.71
	c-33.45,31.988-78.272,49.32-124.54,48.158C2729.963,799.648,2686.19,782.226,2654.605,749.935z M2774.803,751.81
	c31.032,0.282,60.834-12.123,82.5-34.343c23.289-22.895,34.934-54.506,34.934-94.835s-11.117-71.843-33.355-94.54
	c-21.164-22.189-50.655-34.501-81.314-33.947c-30.315-0.7-59.467,11.665-80.033,33.947c-21.447,22.697-32.172,54.31-32.172,94.836
	s10.297,72.138,30.889,94.836c19.938,22.474,48.818,34.944,78.849,34.046H2774.803z"/>
</svg>
